# xmcd CD database file
#
# Track frame offsets:
#	150
#	21063
#	45238
#	69160
#	82601
#	100774
#	122946
#	143635
#	156650
#	180308
#	203051
#	228147
#	243568
#	263552
#
# Disc length: 3864 seconds
#
# Revision: 0
# Processed by: cddbd v1.5.2PL0 Copyright (c) Steve Scherf et al.
# Submitted via: CDex 1.51
#
DISCID=a40f160e
DTITLE=Franconian Jazzband - live
DYEAR=2010
DGENRE=Jazz
TTITLE0=Doctor Jazz
TTITLE1=On The Sunny Side
TTITLE2=Everybody Loves My Baby
TTITLE3=Jazz Me Blues
TTITLE4=Ace In A Hole
TTITLE5=Memphis Blues
TTITLE6=The World Is Waiting
TTITLE7=Someday You'll Be Sorry
TTITLE8=Creole Love Call
TTITLE9=Ain't Misbehavin'
TTITLE10=After You've Gone
TTITLE11=Petite Fleur
TTITLE12=Ain't She Sweet
TTITLE13=Bei mir bist du schön
EXTD=YEAR: 2010
EXTT0=
EXTT1=
EXTT2=
EXTT3=
EXTT4=
EXTT5=
EXTT6=
EXTT7=
EXTT8=
EXTT9=
EXTT10=
EXTT11=
EXTT12=
EXTT13=
PLAYORDER=
